#!OML:ASF F:\VICON\USERDATA\INSTALL\rory3\rory3.ASF
:FULLY-SPECIFIED
:DEGREES
493
root 2.15373 27.3937 -0.109717 -167.404 -10.0402 176.754
lowerback 15.4138 -1.13068 1.2212
upperback 1.3499 -1.34108 3.40515
thorax -7.15434 -0.765873 3.2446
lowerneck -24.3285 -0.260685 -6.74033
upperneck 27.0566 1.46153 0.62218
head 13.0923 -0.23184 1.58097
rclavicle -2.74323e-014 -6.04305e-014
rhumerus 13.3007 25.0169 -84.9378
rradius 88.5064
rwrist 58.1333
rhand -5.67938 -2.79502
rfingers 7.12502
rthumb 20.1405 -31.771
lclavicle -2.74323e-014 -6.04305e-014
lhumerus -3.26315 -30.2665 83.0758
lradius 91.115
lwrist -27.0808
lhand -25.6083 30.4928
lfingers 7.12502
lthumb 0.924032 60.4705
rfemur -44.114 -11.4427 31.1963
rtibia 47.6743
rfoot -18.6681 -7.50007
rtoes 17.2692
lfemur -43.5541 16.4154 -26.2014
ltibia 65.6848
lfoot 0.077441 -1.17208
ltoes -22.8821
494
root 2.17786 27.467 -0.1213 -167.573 -10.5469 176.601
lowerback 15.6372 -1.10932 1.09705
upperback 1.34911 -1.32742 3.39468
thorax -7.27734 -0.754324 3.30979
lowerneck -24.2357 -0.361219 -6.78393
upperneck 27.2759 1.27246 0.72378
head 13.1705 -0.318685 1.59433
rclavicle -3.85642e-014 4.77083e-015
rhumerus 12.6572 24.556 -85.0212
rradius 88.51
rwrist 58.2364
rhand -6.14222 -2.81591
rfingers 7.12502
rthumb 19.6956 -31.8381
lclavicle -3.85642e-014 4.77083e-015
lhumerus -2.5268 -30.9494 82.3908
lradius 92.4351
lwrist -26.6623
lhand -29.0233 31.0378
lfingers 7.12502
lthumb -2.37422 61.0043
rfemur -43.2175 -11.6183 30.9592
rtibia 46.5243
rfoot -18.5019 -7.6715
rtoes 20.0272
lfemur -44.3314 16.5957 -26.2861
ltibia 67.657
lfoot -1.17163 -1.7751
ltoes -23.3132
495
root 2.19791 27.5389 -0.135517 -167.636 -11.2082 176.445
lowerback 15.6678 -1.20427 1.02775
upperback 1.35695 -1.46251 3.4775
thorax -7.27577 -0.818106 3.46855
lowerneck -24.2395 -0.454403 -7.04327
upperneck 27.5141 1.19514 0.801328
head 13.2721 -0.385579 1.65464
rclavicle -3.49861e-014 -1.27222e-014
rhumerus 12.1232 24.3248 -85.0062
rradius 88.5211
rwrist 58.3079
rhand -6.54828 -2.78936
rfingers 7.12502
rthumb 19.3052 -31.8511
lclavicle -3.49861e-014 -1.27222e-014
lhumerus -1.71453 -31.4999 81.7933
lradius 93.7777
lwrist -25.6411
lhand -29.7385 30.612
lfingers 7.12502
lthumb -3.06494 60.5697
rfemur -42.3593 -11.7853 30.6737
rtibia 45.2968
rfoot -18.5818 -7.57361
rtoes 25.3299
lfemur -45.2768 16.5509 -26.4091
ltibia 69.6329
lfoot -1.98331 -1.62961
ltoes -22.7
496
root 2.21224 27.6165 -0.150665 -167.633 -11.8661 176.312
lowerback 15.5437 -1.26572 1.10034
upperback 1.34931 -1.53138 3.48552
thorax -7.21328 -0.852987 3.44553
lowerneck -24.0511 -0.577293 -7.11354
upperneck 27.7266 1.01949 0.721143
head 13.332 -0.499871 1.60154
rclavicle 3.57812e-015 3.33958e-014
rhumerus 11.5393 23.8749 -85.076
rradius 88.5466
rwrist 58.4003
rhand -6.93864 -2.76431
rfingers 7.12502
rthumb 18.9298 -31.8632
lclavicle 3.57812e-015 3.33958e-014
lhumerus -0.868044 -31.9448 81.1599
lradius 95.3353
lwrist -26.1623
lhand -24.1358 29.0639
lfingers 7.12502
lthumb 2.34625 59.0307
rfemur -41.5719 -11.9879 30.4295
rtibia 44.0206
rfoot -18.0392 -8.06416
rtoes 24.1944
lfemur -46.2577 16.4035 -26.5063
ltibia 71.6392
lfoot -3.07676 -1.54308
ltoes -21.4254
497
root 2.22961 27.6998 -0.158931 -167.614 -12.4617 176.189
lowerback 15.4509 -1.33993 1.15671
upperback 1.43179 -1.63032 3.51893
thorax -7.06877 -0.906916 3.46361
lowerneck -24.2054 -0.683287 -7.31258
upperneck 27.8821 0.968016 0.674556
head 13.4327 -0.559739 1.60805
rclavicle 2.8625e-014 -5.24792e-014
rhumerus 11.2726 23.5496 -85.0439
rradius 88.52
rwrist 58.4487
rhand -7.40752 -2.71235
rfingers 7.12502
rthumb 18.4788 -31.8547
lclavicle 2.8625e-014 -5.24792e-014
lhumerus 0.281671 -31.9239 80.4341
lradius 96.634
lwrist -26.7242
lhand -26.4138 29.2451
lfingers 7.12502
lthumb 0.146061 59.2248
rfemur -40.8142 -12.0746 30.2068
rtibia 42.7147
rfoot -17.5036 -8.66572
rtoes 23.3495
lfemur -47.297 16.2871 -26.5731
ltibia 73.6841
lfoot -4.55183 -1.91123
ltoes -21.7559
498
root 2.25409 27.7782 -0.163589 -167.551 -13.0849 176.064
lowerback 15.3635 -1.41824 1.02718
upperback 1.37415 -1.7468 3.61897
thorax -7.06985 -0.956625 3.66747
lowerneck -23.8585 -0.688536 -7.42881
upperneck 27.8874 0.980681 0.56897
head 13.365 -0.590673 1.58475
rclavicle 3.33958e-014 -5.88403e-014
rhumerus 10.678 23.294 -85.0701
rradius 88.5214
rwrist 58.4555
rhand -7.92144 -2.71657
rfingers 7.12502
rthumb 17.9844 -31.9051
lclavicle 3.33958e-014 -5.88403e-014
lhumerus 1.22185 -31.7383 79.884
lradius 97.7328
lwrist -26.8162
lhand -28.9161 28.7301
lfingers 7.12502
lthumb -2.27066 58.6978
rfemur -40.1512 -12.1817 30.0327
rtibia 41.4344
rfoot -17.0389 -9.23119
rtoes 22.8375
lfemur -48.5061 16.1711 -26.6707
ltibia 75.677
lfoot -5.60578 -2.46487
ltoes -22.4155
499
root 2.2759 27.8469 -0.169857 -167.51 -13.6931 175.906
lowerback 15.2949 -1.45459 0.945062
upperback 1.45224 -1.81617 3.66729
thorax -6.94026 -0.991594 3.77455
lowerneck -24.0905 -0.817428 -7.66075
upperneck 28.1563 0.845991 0.743631
head 13.5303 -0.662292 1.6706
rclavicle 5.56597e-015 1.11319e-014
rhumerus 10.3655 22.8699 -84.9466
rradius 88.5795
rwrist 58.4075
rhand -8.36961 -2.70065
rfingers 7.12502
rthumb 17.5532 -31.9282
lclavicle 5.56597e-015 1.11319e-014
lhumerus 2.60405 -31.4707 79.1264
lradius 98.8207
lwrist -27.2389
lhand -30.4193 28.7092
lfingers 7.12502
lthumb -3.7224 58.6565
rfemur -39.4765 -12.3366 29.8151
rtibia 40.1903
rfoot -16.5069 -9.69062
rtoes 22.164
lfemur -49.6531 16.0308 -26.8505
ltibia 77.5801
lfoot -6.43711 -2.97355
ltoes -23.374
500
root 2.29512 27.9155 -0.176799 -167.506 -14.2748 175.658
lowerback 15.2671 -1.48414 0.799424
upperback 1.46494 -1.87854 3.64236
thorax -6.90414 -1.01675 3.84144
lowerneck -23.9568 -0.901628 -7.74215
upperneck 28.4186 0.689407 0.806219
head 13.6207 -0.750051 1.67997
rclavicle 4.92986e-014 -4.6118e-014
rhumerus 9.8369 22.3722 -84.9702
rradius 88.6324
rwrist 58.3587
rhand -8.45101 -2.57423
rfingers 7.12502
rthumb 17.4748 -31.8088
lclavicle 4.92986e-014 -4.6118e-014
lhumerus 3.87193 -31.1349 78.4516
lradius 99.8826
lwrist -27.8823
lhand -31.7127 29.2162
lfingers 7.12502
lthumb -4.97133 59.1379
rfemur -38.7183 -12.4754 29.4561
rtibia 38.9857
rfoot -15.9393 -10.18
rtoes 21.0333
lfemur -50.6363 15.8241 -27.0755
ltibia 79.4269
lfoot -7.39749 -3.27963
ltoes -24.4045
501
root 2.31765 27.9905 -0.178761 -167.485 -14.89 175.46
lowerback 15.273 -1.56311 0.658999
upperback 1.5127 -2.00896 3.69932
thorax -6.84193 -1.07846 4.00806
lowerneck -24.0567 -0.96988 -7.94893
upperneck 28.7317 0.664353 0.78045
head 13.7775 -0.809764 1.69997
rclavicle -2.38542e-014 1.59028e-014
rhumerus 9.58422 22.0747 -84.8778
rradius 88.5771
rwrist 58.2561
rhand -8.27745 -2.37364
rfingers 7.12502
rthumb 17.6419 -31.5933
lclavicle -2.38542e-014 1.59028e-014
lhumerus 5.30067 -30.5217 77.8435
lradius 100.715
lwrist -28.2833
lhand -33.7431 29.4582
lfingers 7.12502
lthumb -6.93163 59.3247
rfemur -37.9773 -12.5118 29.1361
rtibia 37.7981
rfoot -15.4478 -10.7848
rtoes 19.9056
lfemur -51.7135 15.5827 -27.2415
ltibia 81.2429
lfoot -8.27527 -3.36748
ltoes -25.4343
